<?xml version="1.0" encoding="UTF-8"?>
<svg id="Layer_2" data-name="Layer 2" xmlns="http://www.w3.org/2000/svg" viewBox="0 0 333 260">
  <defs>
    <style>
      .cls-1 {
        fill: #fff;
      }

      .cls-2 {
        fill: #1a3854;
      }

      .cls-3 {
        fill: #222;
      }

      .cls-4 {
        fill: #4ac0fe;
      }
    </style>
  </defs>
  <g id="Layer_1-2" data-name="Layer 1">
    <g>
      <g>
        <path class="cls-4" d="M136.37,148.15c-.2-1.08-.47-2.15-.77-3.19-4.11-14.36-16.35-24.77-30.81-24.77s-26.7,10.42-30.81,24.77c-.3,1.04-.57,2.11-.77,3.19-.49,2.4-.73,4.92-.73,7.48,0,19.57,14.48,35.45,32.31,35.45s32.31-15.87,32.31-35.45c0-2.56-.24-5.08-.73-7.48Zm-40.47-.39c-4.36,0-7.9-3.53-7.9-7.88s3.54-7.88,7.9-7.88,7.9,3.52,7.9,7.88-3.54,7.88-7.9,7.88Z"/>
        <path class="cls-4" d="M316.19,214.35c-4.27,8.45-10.31,15.83-17.64,21.68,8.1-6.75,13.79-14.71,17.64-21.68Z"/>
      </g>
      <path class="cls-1" d="M136.37,148.15c-.2-1.08-.47-2.15-.77-3.19-4.11-14.36-16.35-24.77-30.81-24.77s-26.7,10.42-30.81,24.77c-.3,1.04-.57,2.11-.77,3.19-.49,2.4-.73,4.92-.73,7.48,0,19.57,14.48,35.45,32.31,35.45s32.31-15.87,32.31-35.45c0-2.56-.24-5.08-.73-7.48Zm-40.47-.39c-4.36,0-7.9-3.53-7.9-7.88s3.54-7.88,7.9-7.88,7.9,3.52,7.9,7.88-3.54,7.88-7.9,7.88Z"/>
      <path class="cls-1" d="M281.77,114.12c-.67-25.95-21.96-46.87-48.03-46.87-1.86,0-3.71,.12-5.59,.33-13.98-20.38-36.79-32.45-61.66-32.45s-47.68,12.07-61.64,32.45c-1.88-.22-3.75-.33-5.61-.33-26.07,0-47.34,20.91-48.01,46.87C20.88,124.18,0,152.85,0,185.15c0,41,33.3,74.58,74.28,74.85h183.93c41.24,0,74.79-33.58,74.79-74.85,0-32.3-20.88-60.97-51.23-71.03Zm34.42,100.23c-4.27,8.45-10.31,15.83-17.64,21.68-.1,.08-.2,.16-.3,.24-11.04,8.7-24.96,13.88-40.05,13.88H74.32c-30.75-.2-56.54-22.08-62.92-51.04-.99-4.49-1.52-9.18-1.52-13.96,0-29.16,19.59-54.92,47.66-62.66,2.23-.61,3.73-2.7,3.61-5-.04-.71-.06-1.4-.06-2.11,0-21.09,17.12-38.28,38.16-38.28,2.35,0,4.74,.24,7.09,.67,2.01,.39,4.03-.51,5.1-2.23,11.95-19.14,32.53-30.56,55.06-30.56s43.11,11.42,55.08,30.56c1.07,1.71,3.1,2.62,5.1,2.23,2.35-.43,4.74-.67,7.07-.67,14,0,26.25,7.6,32.88,18.88,1.96,3.29,3.42,6.89,4.29,10.73,.67,2.78,1.01,5.69,1.01,8.66,0,.71-.02,1.4-.06,2.11-.12,2.3,1.38,4.39,3.61,5,28.06,7.74,47.66,33.5,47.66,62.66,0,5.42-.67,10.67-1.92,15.69-1.19,4.73-2.86,9.26-5.02,13.51Z"/>
      <path class="cls-3" d="M321.21,200.84c-1.19,4.73-2.86,9.26-5.02,13.51-3.85,6.97-9.54,14.93-17.64,21.68-.1,.08-.2,.16-.3,.24-11.04,8.7-24.96,13.88-40.05,13.88H74.32c-30.75-.2-56.54-22.08-62.92-51.04,1.76,2.05,8.93,21.41,28.83,33.32,13.23,7.92,25.97,9.08,37.41,9.85,42.84,2.88,71.24,1.87,103.19,1.97,15.56,.04,59.11-1.58,75.05-1.97,13.27-.33,22.73-.57,33.57-5.91,19.08-9.39,28.24-27.59,31.76-35.53Z"/>
      <path class="cls-1" d="M270.91,106.71c-8.39,3.74-20.64,7.44-34.78,5.59-15.5-2.01-28.22-10.02-27.65-11.82,.59-1.81,14.4,3.9,33.57,1.97,10.03-1,18.39-3.78,24.57-6.48,1.96,3.29,3.42,6.89,4.29,10.73Z"/>
      <path class="cls-3" d="M275.47,122.49c-2.23-.61-3.73-2.7-3.61-5,.04-.71,.06-1.4,.06-2.11,0-2.97-.34-5.89-1.01-8.66-8.39,3.74-20.64,7.44-34.78,5.59-15.5-2.01-28.22-10.02-27.65-11.82,.59-1.81,14.4,3.9,33.57,1.97,10.03-1,18.39-3.78,24.57-6.48-6.64-11.28-18.88-18.88-32.88-18.88-2.33,0-4.72,.24-7.07,.67-1.99,.39-4.03-.51-5.1-2.23-11.97-19.14-32.57-30.56-55.08-30.56s-43.11,11.42-55.06,30.56c-1.07,1.71-3.08,2.62-5.1,2.23-2.35-.43-4.74-.67-7.09-.67-21.03,0-38.16,17.19-38.16,38.28,0,.71,.02,1.4,.06,2.11,.12,2.3-1.38,4.39-3.61,5-28.06,7.74-47.66,33.5-47.66,62.66,0,4.79,.53,9.47,1.52,13.96,1.76,2.05,8.93,21.41,28.83,33.32,13.23,7.92,25.97,9.08,37.41,9.85,42.84,2.88,71.24,1.87,103.19,1.97,15.56,.04,59.11-1.58,75.05-1.97,13.27-.33,22.73-.57,33.57-5.91,19.08-9.39,28.24-27.59,31.76-35.53,1.24-5.02,1.92-10.28,1.92-15.69,0-29.16-19.59-54.92-47.66-62.66Zm-221.04,13.45c-1.17,3.37-6.2,2.97-13.82,5.91-9.64,3.72-12.94,8.72-13.82,7.88-1.58-1.5,9.36-16.23,19.75-19.69,3.79-1.26,5.43-.33,5.92,0,1.74,1.16,2.67,3.88,1.97,5.91Zm9.87-21.66c-1.28-.45,.2-16.09,9.87-25.6,4.88-4.8,11.55-7.76,11.85-7.88,1.32-.57,3.24-1.4,5.92-1.97,1.94-.41,6.44-1.34,11.85,0,2.69,.67,8.08,2.5,7.9,3.94-.24,1.81-8.93,.04-19.75,3.94-1.62,.59-9.01,3.37-15.8,9.85-9.14,8.72-10.84,18.08-11.85,17.72Zm40.49,85.41c-19.08,0-34.56-16.4-34.56-36.67,0-5.3,1.07-10.32,2.98-14.87,.2-1.08,.47-2.15,.77-3.19,4.11-14.36,16.35-24.77,30.81-24.77s26.7,10.42,30.81,24.77c.3,1.04,.57,2.11,.77,3.19,1.92,4.55,2.98,9.57,2.98,14.87,0,20.26-15.48,36.67-34.56,36.67Zm83.21,2.15c-2.39,10-11.22,16.97-21.51,16.97s-19.14-6.97-21.51-16.97c-.49-2.11,.81-4.23,2.94-4.75,2.11-.49,4.25,.81,4.76,2.93,1.52,6.42,7.19,10.91,13.81,10.91s12.28-4.49,13.82-10.91c.49-2.13,2.63-3.43,4.74-2.93,2.13,.51,3.44,2.64,2.94,4.75Zm-20.99-146.63c-5.29,.18-14.02,.47-23.7,3.94-16.33,5.85-24.55,16.84-25.67,15.75-.99-.96,4.34-10.57,13.82-17.72,14.44-10.89,31.24-10.16,39.5-9.85,9.22,.35,14.48,2.32,17.77,3.94,6.95,3.41,12.46,8.88,11.85,9.85-.49,.79-4.62-2.15-11.85-3.94-9.36-2.34-17-2.13-21.72-1.97Zm64.19,144.48c-19.08,0-34.56-16.4-34.56-36.67,0-5.3,1.07-10.32,2.98-14.87,.2-1.08,.47-2.15,.77-3.19,4.11-14.36,16.35-24.77,30.81-24.77s26.7,10.42,30.81,24.77c.3,1.04,.57,2.11,.77,3.19,1.92,4.55,2.98,9.57,2.98,14.87,0,20.26-15.48,36.67-34.56,36.67Zm70.92-52.99c-.85,.93-4.48-3.84-14.38-6.81-7.84-2.38-12.84-1.6-14.24-4.86-.85-1.97-.12-4.75,1.52-6.05,.47-.35,2.03-1.42,5.91-.43,10.63,2.68,22.65,16.54,21.19,18.16Z"/>
      <path class="cls-1" d="M188,201.83c-2.39,10-11.22,16.97-21.51,16.97s-19.14-6.97-21.51-16.97c-.49-2.11,.81-4.23,2.94-4.75,2.11-.49,4.25,.81,4.76,2.93,1.52,6.42,7.19,10.91,13.81,10.91s12.28-4.49,13.82-10.91c.49-2.13,2.63-3.43,4.74-2.93,2.13,.51,3.44,2.64,2.94,4.75Z"/>
      <path class="cls-3" d="M265.75,163.01c0,20.26-15.48,36.67-34.56,36.67s-34.56-16.4-34.56-36.67c0-5.3,1.07-10.32,2.98-14.87-.49,2.4-.73,4.92-.73,7.48,0,19.57,14.48,35.45,32.31,35.45s32.31-15.87,32.31-35.45c0-2.56-.24-5.08-.73-7.48,1.92,4.55,2.98,9.57,2.98,14.87Z"/>
      <path class="cls-3" d="M139.35,163.01c0,20.26-15.48,36.67-34.56,36.67s-34.56-16.4-34.56-36.67c0-5.3,1.07-10.32,2.98-14.87-.49,2.4-.73,4.92-.73,7.48,0,19.57,14.48,35.45,32.31,35.45s32.31-15.87,32.31-35.45c0-2.56-.24-5.08-.73-7.48,1.92,4.55,2.98,9.57,2.98,14.87Z"/>
      <ellipse class="cls-3" cx="97.03" cy="141" rx="9.03" ry="9"/>
      <path class="cls-1" d="M262.77,148.15c-.2-1.08-.47-2.15-.77-3.19-4.11-14.36-16.35-24.77-30.81-24.77s-26.7,10.42-30.81,24.77c-.3,1.04-.57,2.11-.77,3.19-.49,2.4-.73,4.92-.73,7.48,0,19.57,14.48,35.45,32.31,35.45s32.31-15.87,32.31-35.45c0-2.56-.24-5.08-.73-7.48Zm-40.47-.39c-4.36,0-7.9-3.53-7.9-7.88s3.54-7.88,7.9-7.88,7.9,3.52,7.9,7.88-3.54,7.88-7.9,7.88Z"/>
      <ellipse class="cls-3" cx="223.43" cy="141" rx="9.03" ry="9"/>
      <path class="cls-1" d="M302.11,146.69c-.85,.93-4.48-3.84-14.38-6.81-7.84-2.38-12.84-1.6-14.24-4.86-.85-1.97-.12-4.75,1.52-6.05,.47-.35,2.03-1.42,5.91-.43,10.63,2.68,22.65,16.54,21.19,18.16Z"/>
      <path class="cls-1" d="M200.58,61.11c-.49,.79-4.62-2.15-11.85-3.94-9.36-2.34-17-2.13-21.72-1.97-5.29,.18-14.02,.47-23.7,3.94-16.33,5.85-24.55,16.84-25.67,15.75-.99-.96,4.34-10.57,13.82-17.72,14.44-10.89,31.24-10.16,39.5-9.85,9.22,.35,14.48,2.32,17.77,3.94,6.95,3.41,12.46,8.88,11.85,9.85Z"/>
      <path class="cls-1" d="M111.7,82.77c-.24,1.81-8.93,.04-19.75,3.94-1.62,.59-9.01,3.37-15.8,9.85-9.14,8.72-10.84,18.08-11.85,17.72-1.28-.45,.2-16.09,9.87-25.6,4.88-4.8,11.55-7.76,11.85-7.88,1.32-.57,3.24-1.4,5.92-1.97,1.94-.41,6.44-1.34,11.85,0,2.69,.67,8.08,2.5,7.9,3.94Z"/>
      <path class="cls-1" d="M54.43,135.94c-1.17,3.37-6.2,2.97-13.82,5.91-9.64,3.72-12.94,8.72-13.82,7.88-1.58-1.5,9.36-16.23,19.75-19.69,3.79-1.26,5.43-.33,5.92,0,1.74,1.16,2.67,3.88,1.97,5.91Z"/>
      <g>
        <path class="cls-1" d="M308.69,3.88c-.24-1.83-1.74-3.25-3.59-3.41-36.81-3.05-70.05,8.82-86.74,30.96-7.58,10.06-15.7,28.04-15.8,41.49-.06,8.03,1.72,16.17,1.78,16.52,.75,3.39,1.74,6.75,2.94,10,.38,1.04,1.2,1.89,2.27,2.3,7.92,3.09,16.08,4.65,24.29,4.65,.75,0,1.5-.02,2.25-.04,12.17-.43,22.3-4.23,30.06-8.53,7.76-4.29,13.15-9.08,15.82-11.44,32.59-28.95,27.41-77.1,26.72-82.51Z"/>
        <path class="cls-2" d="M301.36,22.8v.04c-.87,16.56-5.71,40.82-24.65,57.68h-.02c-4.78,4.25-19.39,17.23-40.88,17.96-5.87,.22-11.73-.49-17.5-2.13l.16-.16,22.4-22.33h18.62c2.19,0,3.95-1.75,3.95-3.94s-1.76-3.94-3.95-3.94h-10.72l30.69-30.6c1.56-1.54,1.56-4.02,0-5.55-1.54-1.56-4.03-1.56-5.57,0l-25.83,25.76v-19.52c0-2.17-1.76-3.94-3.95-3.94s-3.95,1.77-3.95,3.94v27.39l-27.37,27.29c-.18-.67-.36-1.34-.51-2.01-.08-.33-.14-.67-.22-1-.02-.08-1.66-7.64-1.6-14.79,.08-11.32,7.29-27.61,14.22-36.81,9.97-13.23,27.39-22.51,47.95-26.33h.04c9.03-1.67,18.64-2.3,28.52-1.73,.26,3.23,.51,8.41,.18,14.71Z"/>
      </g>
      <path class="cls-3" d="M301.36,22.8v.04c-2.29,17.17-9.97,43.56-34.72,60.18-18.21,12.23-37.35,13.57-48.17,13.17l22.4-22.33h18.62c2.19,0,3.95-1.75,3.95-3.94s-1.76-3.94-3.95-3.94h-10.72l30.69-30.6c1.56-1.54,1.56-4.02,0-5.55-1.54-1.56-4.03-1.56-5.57,0l-25.83,25.76v-19.52c0-2.17-1.76-3.94-3.95-3.94s-3.95,1.77-3.95,3.94v27.39l-27.37,27.29c-.18-.67-.36-1.34-.51-2.01-.24-10.99,1.46-29.34,13.23-46.83,12.8-19.02,31.4-27.94,47.12-32.1h.04c9.03-1.67,18.64-2.3,28.52-1.73,.26,3.23,.51,8.41,.18,14.71Z"/>
      <path class="cls-3" d="M272.63,9.83c-15.72,4.16-34.32,13.08-47.12,32.1-11.77,17.49-13.47,35.84-13.23,46.83-.08-.33-.14-.67-.22-1-.02-.08-1.66-7.64-1.6-14.79,.08-11.32,7.29-27.61,14.22-36.81,9.97-13.23,27.39-22.51,47.95-26.33Z"/>
      <path class="cls-3" d="M301.36,22.84c-.87,16.56-5.71,40.82-24.65,57.68h-.02c-4.78,4.25-19.39,17.23-40.88,17.96-5.87,.22-11.73-.49-17.5-2.13l.16-.16c10.82,.39,29.96-.95,48.17-13.17,24.75-16.62,32.43-43.01,34.72-60.18Z"/>
    </g>
  </g>
</svg>