<?xml version="1.0" encoding="UTF-8"?>
<svg id="Layer_2" data-name="Layer 2" xmlns="http://www.w3.org/2000/svg" viewBox="0 0 735.56 575.98">
  <defs>
    <style>
      .cls-1 {
        fill: #26aea2;
      }

      .cls-2 {
        fill: #90fee5;
      }

      .cls-3 {
        fill: #b8e4ff;
      }

      .cls-4 {
        fill: #062c4b;
      }

      .cls-5 {
        fill: #4ac0fe;
      }

      .cls-6 {
        fill: #079ff0;
      }

      .cls-7 {
        fill: #fffdff;
      }

      .cls-8 {
        fill: #4cd2b1;
      }
    </style>
  </defs>
  <g id="Layer_1-2" data-name="Layer 1">
    <g id="logo">
      <g id="cloud">
        <g>
          <path class="cls-5" d="M301.23,328.19c-.44-2.4-1.05-4.76-1.7-7.07-9.07-31.8-36.12-54.88-68.05-54.88s-58.98,23.08-68.05,54.88c-.65,2.31-1.27,4.67-1.7,7.07-1.09,5.32-1.61,10.91-1.61,16.58,0,43.36,31.98,78.52,71.37,78.52s71.37-35.16,71.37-78.52c0-5.67-.52-11.26-1.61-16.58Zm-89.39-.87c-9.64,0-17.45-7.81-17.45-17.45s7.81-17.45,17.45-17.45,17.45,7.81,17.45,17.45-7.81,17.45-17.45,17.45Z"/>
          <path class="cls-5" d="M698.44,474.86c-9.42,18.71-22.77,35.07-38.96,48.03,17.89-14.96,30.45-32.59,38.96-48.03Z"/>
        </g>
        <path class="cls-4" d="M301.23,328.19c-.44-2.4-1.05-4.76-1.7-7.07-9.07-31.8-36.12-54.88-68.05-54.88s-58.98,23.08-68.05,54.88c-.65,2.31-1.27,4.67-1.7,7.07-1.09,5.32-1.61,10.91-1.61,16.58,0,43.36,31.98,78.52,71.37,78.52s71.37-35.16,71.37-78.52c0-5.67-.52-11.26-1.61-16.58Zm-89.39-.87c-9.64,0-17.45-7.81-17.45-17.45s7.81-17.45,17.45-17.45,17.45,7.81,17.45,17.45-7.81,17.45-17.45,17.45Z"/>
        <path class="cls-4" d="M622.4,252.81c-1.48-57.5-48.51-103.83-106.1-103.83-4.1,0-8.2,.26-12.35,.74-30.89-45.15-81.27-71.89-136.2-71.89s-105.31,26.74-136.15,71.89c-4.14-.48-8.29-.74-12.39-.74-57.58,0-104.57,46.33-106.05,103.83C46.11,275.1,0,338.62,0,410.16c0,90.83,73.55,165.21,164.07,165.82h406.28c91.09,0,165.21-74.38,165.21-165.82,0-71.54-46.11-135.06-113.16-157.36Zm76.04,222.05c-9.42,18.71-22.77,35.07-38.96,48.03-.22,.17-.44,.35-.65,.52-24.39,19.28-55.14,30.76-88.47,30.76H164.16c-67.92-.44-124.9-48.9-138.99-113.08-2.18-9.95-3.36-20.33-3.36-30.93,0-64.61,43.28-121.67,105.27-138.81,4.93-1.35,8.24-5.98,7.98-11.08-.09-1.57-.13-3.1-.13-4.67,0-46.72,37.82-84.81,84.28-84.81,5.19,0,10.47,.52,15.66,1.48,4.45,.87,8.9-1.13,11.26-4.93,26.39-42.4,71.85-67.71,121.63-67.71s95.23,25.3,121.67,67.71c2.36,3.8,6.85,5.8,11.26,4.93,5.19-.96,10.47-1.48,15.62-1.48,30.93,0,57.98,16.84,72.64,41.84,4.32,7.29,7.55,15.27,9.47,23.78,1.48,6.15,2.22,12.61,2.22,19.2,0,1.57-.04,3.1-.13,4.67-.26,5.1,3.05,9.73,7.98,11.08,61.99,17.14,105.27,74.21,105.27,138.81,0,12-1.48,23.64-4.23,34.77-2.62,10.47-6.33,20.5-11.08,29.93Z"/>
        <path class="cls-6" d="M709.52,444.93c-2.62,10.47-6.33,20.5-11.08,29.93-8.51,15.44-21.07,33.07-38.96,48.03-.22,.17-.44,.35-.65,.52-24.39,19.28-55.14,30.76-88.47,30.76H164.16c-67.92-.44-124.9-48.9-138.99-113.08,3.88,4.54,19.72,47.42,63.69,73.81,29.23,17.54,57.37,20.11,82.63,21.81,94.62,6.37,157.36,4.14,227.94,4.36,34.38,.09,130.57-3.49,165.77-4.36,29.32-.74,50.21-1.27,74.16-13.09,42.14-20.81,62.38-61.12,70.15-78.7Z"/>
        <path class="cls-6" d="M598.4,236.4c-18.54,8.29-45.59,16.49-76.82,12.39-34.25-4.45-62.34-22.21-61.07-26.17,1.31-4.01,31.8,8.64,74.16,4.36,22.16-2.22,40.62-8.38,54.27-14.35,4.32,7.29,7.55,15.27,9.47,23.78Z"/>
        <path class="cls-5" d="M608.48,271.35c-4.93-1.35-8.24-5.98-7.98-11.08,.09-1.57,.13-3.1,.13-4.67,0-6.59-.74-13.04-2.22-19.2-18.54,8.29-45.59,16.49-76.82,12.39-34.25-4.45-62.34-22.21-61.07-26.17,1.31-4.01,31.8,8.64,74.16,4.36,22.16-2.22,40.62-8.38,54.27-14.35-14.66-25-41.71-41.84-72.64-41.84-5.15,0-10.43,.52-15.62,1.48-4.41,.87-8.9-1.13-11.26-4.93-26.44-42.4-71.94-67.71-121.67-67.71s-95.23,25.3-121.63,67.71c-2.36,3.8-6.81,5.8-11.26,4.93-5.19-.96-10.47-1.48-15.66-1.48-46.46,0-84.28,38.08-84.28,84.81,0,1.57,.04,3.1,.13,4.67,.26,5.1-3.05,9.73-7.98,11.08-61.99,17.14-105.27,74.21-105.27,138.81,0,10.6,1.18,20.98,3.36,30.93,3.88,4.54,19.72,47.42,63.69,73.81,29.23,17.54,57.37,20.11,82.63,21.81,94.62,6.37,157.36,4.14,227.94,4.36,34.38,.09,130.57-3.49,165.77-4.36,29.32-.74,50.21-1.27,74.16-13.09,42.14-20.81,62.38-61.12,70.15-78.7,2.75-11.12,4.23-22.77,4.23-34.77,0-64.61-43.28-121.67-105.27-138.81Zm-488.25,29.8c-2.57,7.46-13.7,6.59-30.54,13.09-21.29,8.25-28.57,19.33-30.54,17.45-3.49-3.32,20.68-35.95,43.62-43.62,8.38-2.79,12-.74,13.09,0,3.84,2.57,5.89,8.59,4.36,13.09Zm21.81-47.99c-2.84-1,.44-35.64,21.81-56.71,10.78-10.64,25.52-17.19,26.17-17.45,2.92-1.27,7.15-3.1,13.09-4.36,4.28-.92,14.22-2.97,26.17,0,5.93,1.48,17.84,5.54,17.45,8.72-.52,4.01-19.72,.09-43.62,8.72-3.58,1.31-19.89,7.46-34.9,21.81-20.2,19.33-23.95,40.05-26.17,39.26Zm89.43,189.2c-42.14,0-76.34-36.34-76.34-81.23,0-11.74,2.36-22.86,6.59-32.94,.44-2.4,1.05-4.76,1.7-7.07,9.07-31.8,36.12-54.88,68.05-54.88s58.98,23.08,68.05,54.88c.65,2.31,1.27,4.67,1.7,7.07,4.23,10.08,6.59,21.2,6.59,32.94,0,44.89-34.2,81.23-76.34,81.23Zm183.79,4.75c-5.28,22.16-24.78,37.6-47.51,37.6s-42.27-15.44-47.51-37.6c-1.09-4.67,1.79-9.38,6.5-10.51,4.67-1.09,9.38,1.79,10.51,6.5,3.36,14.22,15.88,24.17,30.49,24.17s27.13-9.95,30.54-24.17c1.09-4.71,5.8-7.59,10.47-6.5,4.71,1.13,7.59,5.85,6.5,10.51Zm-46.37-324.83c-11.69,.39-30.97,1.05-52.35,8.72-36.08,12.96-54.23,37.3-56.71,34.9-2.18-2.14,9.6-23.43,30.54-39.26,31.89-24.12,69.01-22.51,87.25-21.81,20.37,.79,31.98,5.15,39.26,8.72,15.36,7.55,27.53,19.67,26.17,21.81-1.09,1.74-10.21-4.76-26.17-8.72-20.68-5.19-37.56-4.71-47.99-4.36Zm141.78,320.08c-42.14,0-76.34-36.34-76.34-81.23,0-11.74,2.36-22.86,6.59-32.94,.44-2.4,1.05-4.76,1.7-7.07,9.07-31.8,36.12-54.88,68.05-54.88s58.98,23.08,68.05,54.88c.65,2.31,1.27,4.67,1.7,7.07,4.23,10.08,6.59,21.2,6.59,32.94,0,44.89-34.2,81.23-76.34,81.23Zm156.66-117.39c-1.88,2.05-9.9-8.51-31.76-15.09-17.32-5.28-28.36-3.53-31.45-10.78-1.88-4.36-.26-10.51,3.36-13.39,1.05-.79,4.49-3.14,13.04-.96,23.47,5.93,50.04,36.65,46.81,40.22Z"/>
        <path class="cls-4" d="M415.27,447.11c-5.28,22.16-24.78,37.6-47.51,37.6s-42.27-15.44-47.51-37.6c-1.09-4.67,1.79-9.38,6.5-10.51,4.67-1.09,9.38,1.79,10.51,6.5,3.36,14.22,15.88,24.17,30.49,24.17s27.13-9.95,30.54-24.17c1.09-4.71,5.8-7.59,10.47-6.5,4.71,1.13,7.59,5.85,6.5,10.51Z"/>
        <path class="cls-7" d="M587.02,361.13c0,44.89-34.2,81.23-76.34,81.23s-76.34-36.34-76.34-81.23c0-11.74,2.36-22.86,6.59-32.94-1.09,5.32-1.61,10.91-1.61,16.58,0,43.36,31.98,78.52,71.37,78.52s71.37-35.16,71.37-78.52c0-5.67-.52-11.26-1.61-16.58,4.23,10.08,6.59,21.2,6.59,32.94Z"/>
        <path class="cls-7" d="M307.82,361.13c0,44.89-34.2,81.23-76.34,81.23s-76.34-36.34-76.34-81.23c0-11.74,2.36-22.86,6.59-32.94-1.09,5.32-1.61,10.91-1.61,16.58,0,43.36,31.98,78.52,71.37,78.52s71.37-35.16,71.37-78.52c0-5.67-.52-11.26-1.61-16.58,4.23,10.08,6.59,21.2,6.59,32.94Z"/>
        <circle class="cls-7" cx="211.84" cy="309.87" r="17.45"/>
        <path class="cls-4" d="M580.43,328.19c-.44-2.4-1.05-4.76-1.7-7.07-9.07-31.8-36.12-54.88-68.05-54.88s-58.98,23.08-68.05,54.88c-.65,2.31-1.27,4.67-1.7,7.07-1.09,5.32-1.61,10.91-1.61,16.58,0,43.36,31.98,78.52,71.37,78.52s71.37-35.16,71.37-78.52c0-5.67-.52-11.26-1.61-16.58Zm-89.39-.87c-9.64,0-17.45-7.81-17.45-17.45s7.81-17.45,17.45-17.45,17.45,7.81,17.45,17.45-7.81,17.45-17.45,17.45Z"/>
        <circle class="cls-7" cx="491.04" cy="309.87" r="17.45"/>
        <path class="cls-3" d="M667.33,324.96c-1.88,2.05-9.9-8.51-31.76-15.09-17.32-5.28-28.36-3.53-31.45-10.78-1.88-4.36-.26-10.51,3.36-13.39,1.05-.79,4.49-3.14,13.04-.96,23.47,5.93,50.04,36.65,46.81,40.22Z"/>
        <path class="cls-3" d="M443.05,135.37c-1.09,1.74-10.21-4.76-26.17-8.72-20.68-5.19-37.56-4.71-47.99-4.36-11.69,.39-30.97,1.05-52.35,8.72-36.08,12.96-54.23,37.3-56.71,34.9-2.18-2.14,9.6-23.43,30.54-39.26,31.89-24.12,69.01-22.51,87.25-21.81,20.37,.79,31.98,5.15,39.26,8.72,15.36,7.55,27.53,19.67,26.17,21.81Z"/>
        <path class="cls-3" d="M246.74,183.36c-.52,4.01-19.72,.09-43.62,8.72-3.58,1.31-19.89,7.46-34.9,21.81-20.2,19.33-23.95,40.05-26.17,39.26-2.84-1,.44-35.64,21.81-56.71,10.78-10.64,25.52-17.19,26.17-17.45,2.92-1.27,7.15-3.1,13.09-4.36,4.28-.92,14.22-2.97,26.17,0,5.93,1.48,17.84,5.54,17.45,8.72Z"/>
        <path class="cls-3" d="M120.23,301.14c-2.57,7.46-13.7,6.59-30.54,13.09-21.29,8.25-28.57,19.33-30.54,17.45-3.49-3.32,20.68-35.95,43.62-43.62,8.38-2.79,12-.74,13.09,0,3.84,2.57,5.89,8.59,4.36,13.09Z"/>
      </g>
      <g id="leaf">
        <g>
          <path class="cls-4" d="M681.86,8.6c-.52-4.06-3.84-7.2-7.94-7.55-81.32-6.76-154.74,19.54-191.6,68.58-16.75,22.29-34.68,62.12-34.9,91.92-.13,17.8,3.8,35.82,3.93,36.6,1.66,7.5,3.84,14.96,6.5,22.16,.83,2.31,2.66,4.19,5.02,5.1,17.49,6.85,35.51,10.3,53.66,10.3,1.66,0,3.32-.04,4.97-.09,26.87-.96,49.25-9.38,66.4-18.89,17.14-9.51,29.05-20.11,34.94-25.35,71.98-64.13,60.55-170.79,59.02-182.79Z"/>
          <path class="cls-4" d="M665.67,50.52v.09c-1.92,36.69-12.61,90.43-54.44,127.78h-.04c-10.56,9.42-42.84,38.17-90.3,39.79-12.96,.48-25.91-1.09-38.65-4.71l.35-.35,49.47-49.47h41.14c4.84,0,8.72-3.88,8.72-8.72s-3.88-8.72-8.72-8.72h-23.69l67.79-67.79c3.45-3.4,3.45-8.9,0-12.3-3.4-3.45-8.9-3.45-12.3,0l-57.06,57.06v-43.23c0-4.8-3.88-8.72-8.72-8.72s-8.72,3.93-8.72,8.72v60.68l-60.46,60.46c-.39-1.48-.78-2.97-1.13-4.45-.17-.74-.31-1.48-.48-2.22-.04-.17-3.66-16.93-3.53-32.76,.17-25.08,16.1-61.16,31.41-81.53,22.03-29.32,60.51-49.86,105.92-58.33h.09c19.94-3.71,41.18-5.1,62.99-3.84,.57,7.15,1.13,18.63,.39,32.59Z"/>
        </g>
        <path class="cls-8" d="M665.67,50.52v.09c-5.06,38.04-22.03,96.5-76.69,133.32-40.22,27.09-82.49,30.06-106.4,29.19l49.47-49.47h41.14c4.84,0,8.72-3.88,8.72-8.72s-3.88-8.72-8.72-8.72h-23.69l67.79-67.79c3.45-3.4,3.45-8.9,0-12.3-3.4-3.45-8.9-3.45-12.3,0l-57.06,57.06v-43.23c0-4.8-3.88-8.72-8.72-8.72s-8.72,3.93-8.72,8.72v60.68l-60.46,60.46c-.39-1.48-.78-2.97-1.13-4.45-.52-24.34,3.23-65,29.23-103.74,28.27-42.14,69.36-61.9,104.09-71.11h.09c19.94-3.71,41.18-5.1,62.99-3.84,.57,7.15,1.13,18.63,.39,32.59Z"/>
        <path class="cls-2" d="M602.2,21.77c-34.73,9.21-75.82,28.97-104.09,71.11-26,38.74-29.75,79.4-29.23,103.74-.17-.74-.31-1.48-.48-2.22-.04-.17-3.66-16.93-3.53-32.76,.17-25.08,16.1-61.16,31.41-81.53,22.03-29.32,60.51-49.86,105.92-58.33Z"/>
        <path class="cls-1" d="M665.67,50.61c-1.92,36.69-12.61,90.43-54.44,127.78h-.04c-10.56,9.42-42.84,38.17-90.3,39.79-12.96,.48-25.91-1.09-38.65-4.71l.35-.35c23.91,.87,66.18-2.09,106.4-29.19,54.66-36.82,71.63-95.28,76.69-133.32Z"/>
      </g>
    </g>
  </g>
</svg>