<?xml version="1.0" standalone="no"?>
<!DOCTYPE svg PUBLIC "-//W3C//DTD SVG 20010904//EN"
 "http://www.w3.org/TR/2001/REC-SVG-20010904/DTD/svg10.dtd">
<svg version="1.0" xmlns="http://www.w3.org/2000/svg"
 width="737.000000pt" height="737.000000pt" viewBox="0 0 737.000000 737.000000"
 preserveAspectRatio="xMidYMid meet">
<metadata>
Created by potrace 1.14, written by Peter Selinger 2001-2017
</metadata>
<g transform="translate(0.000000,737.000000) scale(0.100000,-0.100000)"
fill="#000000" stroke="none">
<path d="M6228 6559 c-457 -52 -795 -171 -1086 -381 -78 -57 -227 -195 -282
-263 -54 -66 -135 -195 -187 -297 -30 -59 -57 -108 -60 -108 -4 0 -14 6 -22
14 -29 26 -225 124 -321 162 -88 34 -209 68 -289 80 -18 3 -43 7 -54 10 -11 2
-56 6 -101 10 -563 47 -1115 -196 -1451 -639 l-51 -68 -120 0 c-286 0 -541
-103 -742 -299 -67 -65 -182 -215 -182 -237 0 -7 -3 -13 -8 -13 -4 0 -13 -15
-21 -32 -8 -18 -22 -51 -32 -73 -24 -54 -55 -159 -64 -220 -5 -27 -9 -53 -11
-57 -1 -5 -2 -30 -3 -56 l-1 -48 -65 -23 c-138 -49 -362 -181 -479 -282 -143
-123 -277 -284 -364 -434 -37 -65 -112 -224 -112 -238 0 -7 -4 -17 -9 -22 -22
-23 -83 -278 -97 -400 -17 -156 -6 -357 31 -536 9 -46 56 -202 71 -239 46
-108 143 -287 202 -370 86 -121 261 -296 382 -383 180 -127 410 -228 643 -279
l102 -23 2190 -3 c1494 -1 2217 1 2275 8 69 9 217 41 300 65 115 33 343 149
459 232 99 71 245 208 323 303 163 198 311 518 343 740 4 24 8 47 10 51 7 10
18 179 18 259 1 685 -428 1306 -1070 1551 l-63 24 -1 45 c0 25 -2 54 -4 65 -2
11 -7 36 -10 55 -14 75 -54 199 -85 260 l-33 65 54 44 c139 115 297 292 383
429 62 99 175 341 192 412 2 8 15 56 29 105 22 78 37 151 59 280 37 224 37
655 0 712 -28 44 -47 47 -289 49 -126 1 -260 -2 -297 -7z"/>
</g>
</svg>
